#!OML:ASF X:\für Bonn\!DataBase\2005_08_12_Daniel\c3d\Daniel.ASF
:FULLY-SPECIFIED
:DEGREES
154
root 17.6889 5.74346 -1.32049 -1269.69 201.394 141.192
lowerback 72.7015 -2.59588 16.0211
upperback 11.1138 6.31631 -5.42535
thorax -6.41893 3.11363 -15.3421
lowerneck 11.6357 7.813 -3.72016
upperneck 12.7343 10.0201 -5.69792
head 2.28964 4.5708 -1.35732
rclavicle 5.08889e-014 -3.97569e-014
rhumerus -305.427 51.1942 307.444
rradius 33.0792
rwrist 27.145
rhand -5.27122 731.149
rfingers 7.12502
rthumb 20.5328 702.215
lclavicle 5.08889e-014 -3.97569e-014
lhumerus -348.385 14.671 -286.68
lradius 24.0353
lwrist -18.8684
lhand -69.5748 -770.772
lfingers 7.12502
lthumb -41.2097 -385.923
rfemur -101.993 -51.7412 50.5857
rtibia 128.915
rfoot 395.613 43.4432
rtoes 22.5209
lfemur -49.7605 41.6333 -28.1458
ltibia 137.969
lfoot 11.2276 -33.205
ltoes -3.35563
155
root 17.7951 5.62836 -1.26171 -1269.9 202.905 140.745
lowerback 72.2983 -2.51318 16.2554
upperback 11.1856 6.49133 -5.34613
thorax -6.2919 3.19086 -15.4106
lowerneck 11.3992 8.01107 -3.52887
upperneck 13.0431 10.3501 -5.99869
head 2.47106 4.71676 -1.47572
rclavicle -1.27222e-013 4.13472e-014
rhumerus -305.472 51.5606 306.679
rradius 32.383
rwrist 25.767
rhand -3.7044 731.044
rfingers 7.12502
rthumb 22.0378 702.28
lclavicle -1.27222e-013 4.13472e-014
lhumerus -349.429 15.6354 -286.135
lradius 23.3141
lwrist -19.4162
lhand -69.9346 -773.3
lfingers 7.12502
lthumb -41.5474 -388.56
rfemur -101.78 -52.1213 50.3022
rtibia 128.962
rfoot 397.199 43.1067
rtoes 22.2563
lfemur -50.0287 41.8173 -29.2935
ltibia 137.786
lfoot 11.1055 -32.7741
ltoes -2.71231
156
root 17.8969 5.51436 -1.20161 -1270.07 204.399 140.255
lowerback 71.8735 -2.44878 16.5211
upperback 11.2582 6.66985 -5.24566
thorax -6.15851 3.26979 -15.4663
lowerneck 11.0998 8.21004 -3.3975
upperneck 13.3719 10.6803 -6.25014
head 2.66675 4.85843 -1.56526
rclavicle 1.59028e-014 -5.725e-014
rhumerus -305.843 51.7951 305.457
rradius 31.6604
rwrist 24.5525
rhand -2.10628 731.028
rfingers 7.12502
rthumb 23.5715 702.452
lclavicle 1.59028e-014 -5.725e-014
lhumerus -350.455 16.6155 -285.615
lradius 22.55
lwrist -19.9622
lhand -70.307 -775.902
lfingers 7.12502
lthumb -41.8967 -391.277
rfemur -101.596 -52.4325 50.0814
rtibia 128.992
rfoot 398.612 42.7963
rtoes 21.8365
lfemur -50.343 41.9666 -30.3994
ltibia 137.626
lfoot 10.959 -32.353
ltoes -1.99378
157
root 17.9943 5.40128 -1.14013 -1270.25 205.888 139.792
lowerback 71.5106 -2.39305 16.7652
upperback 11.2874 6.8346 -5.15714
thorax -6.07563 3.33702 -15.5241
lowerneck 10.8389 8.41105 -3.2895
upperneck 13.6591 11.0046 -6.46991
head 2.84138 4.99843 -1.64217
rclavicle -4.13472e-014 2.70347e-014
rhumerus -306.554 51.9613 303.772
rradius 30.9422
rwrist 23.4492
rhand -0.586503 731.082
rfingers 7.12502
rthumb 25.0285 702.701
lclavicle -4.13472e-014 2.70347e-014
lhumerus -351.582 17.6641 -285.162
lradius 21.899
lwrist -20.5369
lhand -70.5982 -778.461
lfingers 7.12502
lthumb -42.1696 -393.928
rfemur -101.404 -52.7406 49.839
rtibia 129.032
rfoot 399.91 42.4875
rtoes 21.3404
lfemur -50.6646 42.0412 -31.5474
ltibia 137.447
lfoot 10.867 -31.9035
ltoes -1.28666
158
root 18.089 5.29056 -1.07711 -1270.39 207.367 139.287
lowerback 71.1385 -2.35732 17.0523
upperback 11.3017 7.00998 -5.06446
thorax -5.99899 3.40951 -15.5982
lowerneck 10.6005 8.60456 -3.13846
upperneck 13.9266 11.3228 -6.70193
head 3.01168 5.13801 -1.73056
rclavicle -1.52667e-013 6.67916e-014
rhumerus -307.507 51.9997 301.765
rradius 30.2311
rwrist 22.5507
rhand 0.867111 731.2
rfingers 7.12502
rthumb 26.4207 703.021
lclavicle -1.52667e-013 6.67916e-014
lhumerus -352.753 18.5009 -284.828
lradius 21.2516
lwrist -20.8957
lhand -70.9004 -781.516
lfingers 7.12502
lthumb -42.4526 -397.079
rfemur -101.207 -53.0188 49.6252
rtibia 129.053
rfoot 401.183 42.1438
rtoes 20.8888
lfemur -51.0321 42.0368 -32.6868
ltibia 137.247
lfoot 10.755 -31.4981
ltoes -0.641673
159
root 18.1794 5.17821 -1.01361 -1270.53 208.86 138.776
lowerback 70.8067 -2.33157 17.3482
upperback 11.317 7.18507 -4.97128
thorax -5.91511 3.48357 -15.6727
lowerneck 10.3364 8.79553 -3.0362
upperneck 14.1691 11.6307 -6.87441
head 3.17226 5.27183 -1.78993
rclavicle -1.97194e-013 -7.95139e-015
rhumerus -308.584 51.9524 299.586
rradius 29.5301
rwrist 21.7753
rhand 2.19263 731.32
rfingers 7.12502
rthumb 27.6888 703.338
lclavicle -1.97194e-013 -7.95139e-015
lhumerus -353.937 19.2638 -284.536
lradius 20.6619
lwrist -21.1292
lhand -71.2279 -784.638
lfingers 7.12502
lthumb -42.7591 -400.307
rfemur -100.979 -53.2409 49.3859
rtibia 129.073
rfoot 402.363 41.756
rtoes 20.491
lfemur -51.3074 42.1044 -33.746
ltibia 137.021
lfoot 10.6374 -31.1547
ltoes -0.196224
160
root 18.2656 5.06435 -0.949982 -1270.67 210.39 138.267
lowerback 70.5 -2.29375 17.6419
upperback 11.309 7.3747 -4.89184
thorax -5.8508 3.56326 -15.7697
lowerneck 10.2118 8.97427 -2.8911
upperneck 14.2872 11.9078 -7.04766
head 3.26888 5.40086 -1.86367
rclavicle -2.54444e-014 -3.02153e-014
rhumerus -309.966 51.7993 297.059
rradius 28.8633
rwrist 21.3303
rhand 3.32464 731.567
rfingers 7.12502
rthumb 28.7707 703.764
lclavicle -2.54444e-014 -3.02153e-014
lhumerus -355.168 19.9899 -284.327
lradius 20.0823
lwrist -21.3265
lhand -71.4877 -787.903
lfingers 7.12502
lthumb -43.0021 -403.657
rfemur -100.767 -53.3668 49.1558
rtibia 129.104
rfoot 403.363 41.3548
rtoes 19.9146
lfemur -51.5149 42.2942 -34.724
ltibia 136.788
lfoot 10.5027 -30.8824
ltoes 0.256966
161
root 18.3485 4.94937 -0.886227 -1270.84 211.936 137.779
lowerback 70.2365 -2.24105 17.8854
upperback 11.295 7.55419 -4.7954
thorax -5.80226 3.63311 -15.8216
lowerneck 10.1736 9.16771 -2.81816
upperneck 14.2702 12.1785 -7.17942
head 3.29558 5.53215 -1.91733
rclavicle -8.5875e-014 1.90833e-014
rhumerus -311.066 51.8323 295.115
rradius 28.5256
rwrist 20.7335
rhand 4.23259 731.681
rfingers 7.12502
rthumb 29.6377 704.028
lclavicle -8.5875e-014 1.90833e-014
lhumerus -356.513 20.5942 -284.189
lradius 19.6578
lwrist -21.3479
lhand -71.7109 -791.058
lfingers 7.12502
lthumb -43.2108 -406.887
rfemur -100.487 -53.4853 48.8532
rtibia 129.129
rfoot 404.405 40.9035
rtoes 19.5721
lfemur -51.6246 42.5015 -35.6578
ltibia 136.501
lfoot 10.425 -30.6834
ltoes 0.542659
162
root 18.4294 4.83576 -0.821375 -1270.97 213.491 137.239
lowerback 69.96 -2.20643 18.1621
upperback 11.294 7.7325 -4.70027
thorax -5.7318 3.707 -15.8857
lowerneck 10.2327 9.3472 -2.70031
upperneck 14.1113 12.4203 -7.34118
head 3.26027 5.6598 -1.99457
rclavicle -1.7175e-013 8.42847e-014
rhumerus -311.832 52.0169 293.788
rradius 28.4826
rwrist 20.0496
rhand 4.86203 731.725
rfingers 7.12502
rthumb 30.2384 704.181
lclavicle -1.7175e-013 8.42847e-014
lhumerus -357.92 21.1031 -284.118
lradius 19.3871
lwrist -21.2262
lhand -71.8605 -793.762
lfingers 7.12502
lthumb -43.3505 -409.641
rfemur -100.16 -53.4975 48.5373
rtibia 129.127
rfoot 405.33 40.3811
rtoes 19.1435
lfemur -51.7642 42.7459 -36.5335
ltibia 136.213
lfoot 10.37 -30.5754
ltoes 0.776051
163
root 18.5089 4.72372 -0.756858 -1271.03 215.023 136.589
lowerback 69.6949 -2.21092 18.4831
upperback 11.2758 7.9076 -4.57877
thorax -5.67364 3.7753 -15.932
lowerneck 10.3717 9.53229 -2.57715
upperneck 13.8861 12.6594 -7.51335
head 3.19002 5.79104 -2.08118
rclavicle -1.59028e-014 2.54444e-014
rhumerus -312.512 52.3051 292.689
rradius 28.5723
rwrist 19.5108
rhand 5.27568 731.789
rfingers 7.12502
rthumb 30.6329 704.319
lclavicle -1.59028e-014 2.54444e-014
lhumerus -359.344 21.7632 -284.027
lradius 19.1821
lwrist -21.2215
lhand -72.0153 -796.55
lfingers 7.12502
lthumb -43.4952 -412.481
rfemur -99.737 -53.3965 48.2435
rtibia 129.077
rfoot 406.098 39.8536
rtoes 18.709
lfemur -51.8704 43.0152 -37.225
ltibia 135.932
lfoot 10.3274 -30.5061
ltoes 0.77903
